<svg height="511pt" viewBox="0 0 511 511.99995" width="511pt" xmlns="http://www.w3.org/2000/svg"><path d="m288.398438 396.964844-86.960938 86.957031c-2.929688 2.929687-2.929688 7.683594 0 10.613281 1.46875 1.464844 3.386719 2.195313 5.308594 2.195313 1.917968 0 3.839844-.730469 5.304687-2.195313l86.960938-86.960937c2.929687-2.929688 2.929687-7.683594 0-10.609375-2.929688-2.929688-7.679688-2.933594-10.613281 0zm0 0"/><path d="m500.136719 81.230469c-36.167969-79.917969-136.878907-106.183594-207.324219-54.746094-3.347656 2.441406-4.078125 7.136719-1.636719 10.484375 2.445313 3.347656 7.140625 4.078125 10.484375 1.632812 13.417969-9.792968 28.40625-16.652343 44.273438-20.367187l-24.089844 48.804687-53.269531 7.742188c4.339843-7.21875 9.4375-14.03125 15.265625-20.320312 2.816406-3.039063 2.632812-7.789063-.40625-10.601563-3.039063-2.820313-7.785156-2.636719-10.601563.402344-9.910156 10.695312-17.949219 22.738281-23.964843 35.679687l-187.042969 187.042969c-2.929688 2.929687-2.929688 7.679687 0 10.609375 1.464843 1.464844 3.386719 2.199219 5.308593 2.199219 1.917969 0 3.839844-.734375 5.304688-2.199219l166.199219-166.199219c-20.085938 102.265625 76.5625 189.917969 176.664062 158.667969l-84.285156 84.285156c-2.929687 2.929688-2.929687 7.683594 0 10.613282 1.464844 1.464843 3.382813 2.195312 5.304687 2.195312 1.921876 0 3.839844-.730469 5.308594-2.195312l119.222656-119.226563c49.066407-39.5625 65.191407-107.253906 39.285157-164.503906zm-206.5 149.988281 10.433593-60.847656 21.066407-4.125 41.558593 30.191406v18.722656l-55.125 28.984375c-6.367187-3.777343-12.371093-8.101562-17.933593-12.925781zm90.695312-215.824219 28.648438 58.054688-13.6875 21.699219h-50.1875l-13.6875-21.699219 28.652343-58.054688c7.867188-.644531 13.792969-.457031 20.261719 0zm-33.910156 94.761719h47.558594l3.34375 10.296875c1.28125 3.941406 5.519531 6.09375 9.457031 4.816406 3.9375-1.28125 6.097656-5.511719 4.816406-9.457031l-3.945312-12.132812 13.664062-21.65625 62.714844 9.117187c2.6875 6.476563 4.773438 13.058594 6.332031 19.96875l-45.933593 44.777344-21.160157-4.148438-3.867187-11.902343c-1.28125-3.941407-5.515625-6.097657-9.457032-4.816407-3.9375 1.28125-6.097656 5.511719-4.816406 9.453125l3.546875 10.914063-38.476562 27.957031-38.476563-27.957031zm31.28125 86.285156 41.558594-30.195312 21.066406 4.125 10.347656 60.316406c-1.15625.945312-4.144531 5.328125-17.84375 13.457031l-55.128906-28.984375zm88.621094 18.597656-2.65625 2.65625-8.757813-51.070312 38.140625-37.175781c.199219 2.871093.308594 5.765625.308594 8.6875 0 29.070312-10.128906 55.8125-27.035156 76.902343zm9.449219-140.265624-53.21875-7.734376-24.074219-48.78125c32.703125 7.710938 60.414062 28.496094 77.292969 56.515626zm-156.6875 7.25 13.660156 21.65625-15.617188 48.058593-21.160156 4.144531-45.9375-44.777343c1.496094-6.660157 3.539062-13.265625 6.304688-19.964844zm-71.742188 47.417968 38.144531 37.183594-8.835937 51.527344c-21.117188-24.652344-31.582032-56.304688-29.308594-88.710938zm76.832031 122.925782 46.023438-24.195313 46.027343 24.195313c-28.804687 11.648437-61.960937 12.167968-92.050781 0zm0 0"/><path d="m183.140625 405.785156-93.40625 93.40625c-2.929687 2.929688-2.929687 7.679688 0 10.609375 1.464844 1.464844 3.386719 2.199219 5.304687 2.199219 1.921876 0 3.839844-.730469 5.308594-2.199219l93.40625-93.40625c2.929688-2.929687 2.929688-7.679687 0-10.609375-2.933594-2.929687-7.683594-2.929687-10.613281 0zm0 0"/><path d="m295.816406 293.109375-89.320312 89.320313c-2.929688 2.929687-2.929688 7.679687 0 10.609374 1.464844 1.464844 3.386718 2.199219 5.304687 2.199219 1.921875 0 3.839844-.734375 5.308594-2.199219l89.320313-89.320312c2.929687-2.929688 2.929687-7.683594 0-10.609375-2.933594-2.933594-7.683594-2.933594-10.613282 0zm0 0"/><path d="m99.445312 396.0625c-2.933593-2.929688-7.683593-2.929688-10.613281 0l-86.132812 86.132812c-2.933594 2.929688-2.933594 7.683594 0 10.613282 1.464843 1.460937 3.386719 2.195312 5.304687 2.195312 1.917969 0 3.839844-.730468 5.304688-2.195312l86.136718-86.136719c2.929688-2.929687 2.929688-7.679687 0-10.609375zm0 0"/><path d="m123.460938 372.046875c1.464843 1.464844 3.382812 2.199219 5.304687 2.199219 1.917969 0 3.839844-.734375 5.304687-2.199219l127.699219-127.699219c2.929688-2.929687 2.929688-7.679687 0-10.609375-2.933593-2.929687-7.683593-2.929687-10.613281 0l-127.695312 127.695313c-2.929688 2.929687-2.929688 7.683594 0 10.613281zm0 0"/><path d="m127.730469 275.664062-123.339844 123.339844c-2.929687 2.929688-2.929687 7.683594 0 10.613282 1.464844 1.460937 3.386719 2.195312 5.304687 2.195312 1.921876 0 3.839844-.730469 5.304688-2.195312l123.34375-123.34375c2.929688-2.929688 2.929688-7.683594 0-10.609376-2.929688-2.929687-7.679688-2.933593-10.613281 0zm0 0"/><path d="m8.191406 361.53125c1.917969 0 3.839844-.730469 5.304688-2.195312l51.136718-51.136719c2.929688-2.929688 2.929688-7.683594 0-10.613281-2.929687-2.929688-7.679687-2.929688-10.609374 0l-51.136719 51.136718c-2.9296878 2.929688-2.9296878 7.683594 0 10.609375 1.464843 1.46875 3.386719 2.199219 5.304687 2.199219zm0 0"/><path d="m201.53125 221.179688 25.453125-25.457032c2.929687-2.929687 2.929687-7.679687 0-10.609375-2.929687-2.929687-7.679687-2.929687-10.613281 0l-25.453125 25.453125c-2.929688 2.929688-2.929688 7.683594 0 10.613282 1.464843 1.464843 3.386719 2.195312 5.304687 2.195312 1.921875 0 3.84375-.730469 5.308594-2.195312zm0 0"/></svg>